<svg xmlns="http://www.w3.org/2000/svg" width="200" height="115" viewBox="0 0 200 115">
  <title>jsdoc-md logo</title>
  <path fill="#abb2c0" d="M39.52 14.95L36.34 13 13 61.166l3.129 2 23.39-48.217zm13.233 13.182l-5.283 5.899 3.232 2.462 4.924-4.463 5.489 5.079 3.18-1.95-5.386-6.565 8.156-3.027-1.54-3.283-7.283 1.796.154-7.951-3.745-.257-.667 7.746-6.411-2.462-2 3.078 7.18 3.898zM79.813 27.516l-5.283 5.9 3.231 2.462 4.925-4.463 5.488 5.078 3.18-1.95-5.385-6.565 8.155-3.026-1.538-3.283-7.284 1.795.153-7.95-3.744-.257-.667 7.746-6.412-2.463-2 3.078 7.181 3.898zM183.764 14.95L180.583 13l-23.339 48.166 3.129 2 23.391-48.217zm-39.856 13.182l-5.284 5.899 3.232 2.462 4.924-4.463 5.489 5.079 3.18-1.95-5.386-6.565 8.156-3.027-1.539-3.283-7.284 1.796.154-7.951-3.745-.257-.666 7.746-6.412-2.462-2.001 3.078 7.182 3.898z" />
  <path fill="#03a7dd" d="M37.134 101V47.537h15.724l15.724 19.656 15.725-19.656h15.724V101H84.307V70.338L68.582 89.993 52.858 70.338V101H37.134zm98.277 0l-23.587-25.945h15.725V47.537h15.724v27.518h15.725L135.411 101z" />
</svg>
